<?xml version="1.0" standalone="no"?>
<!DOCTYPE svg PUBLIC "-//W3C//DTD SVG 20010904//EN"
 "http://www.w3.org/TR/2001/REC-SVG-20010904/DTD/svg10.dtd">
<svg version="1.0" xmlns="http://www.w3.org/2000/svg"
 width="225.000000pt" height="225.000000pt" viewBox="0 0 225.000000 225.000000"
 preserveAspectRatio="xMidYMid meet">

<g transform="translate(0.000000,225.000000) scale(0.100000,-0.100000)"
fill="#0B8E00" stroke="none">
<path d="M1055 2244 c-345 -30 -630 -185 -827 -449 -253 -338 -293 -796 -103
-1175 276 -552 954 -773 1510 -492 254 127 459 364 551 636 76 221 76 501 0
722 -129 380 -463 670 -850 738 -89 16 -219 25 -281 20z m25 -91 c34 -43 2
-113 -52 -113 -26 0 -68 44 -68 72 0 67 78 94 120 41z m120 12 c0 -9 -9 -15
-25 -15 -14 0 -25 -4 -25 -10 0 -5 11 -10 25 -10 16 0 25 -6 25 -15 0 -9 -9
-15 -25 -15 -20 0 -25 -5 -25 -25 0 -16 -6 -25 -15 -25 -12 0 -15 14 -15 65
l0 65 40 0 c29 0 40 -4 40 -15z m164 -5 c16 -6 26 -17 26 -30 0 -23 -4 -24
-29 -8 -28 17 -53 3 -49 -29 3 -24 8 -28 34 -28 24 0 30 -4 26 -17 -6 -23 -27
-29 -57 -18 -54 21 -57 101 -5 127 30 15 24 15 54 3z m-482 -74 c10 -33 16
-61 14 -63 -2 -3 -23 5 -46 17 l-42 21 7 -29 c4 -21 2 -31 -9 -35 -11 -4 -20
10 -35 55 -12 34 -19 63 -17 65 2 2 24 -5 49 -16 l46 -20 -9 25 c-14 36 -12
46 7 42 11 -2 24 -24 35 -62z m627 18 c12 -15 21 -35 21 -46 0 -26 -44 -68
-71 -68 -30 0 -69 38 -69 65 0 35 37 75 70 75 19 0 36 -9 49 -26z m-773 -50
c21 -32 14 -73 -17 -97 -24 -17 -30 -18 -55 -6 -16 8 -34 25 -40 38 -36 71 68
132 112 65z m871 -64 c3 0 21 9 39 21 38 23 40 19 19 -41 -25 -72 -18 -79 28
-27 l42 49 28 -22 c47 -37 26 -88 -33 -77 -21 5 -32 2 -38 -10 -8 -14 -13 -13
-43 8 -19 13 -35 25 -37 26 -2 1 1 11 8 22 13 25 7 26 -25 5 l-25 -16 0 37 0
37 -19 -23 c-15 -19 -22 -21 -32 -12 -9 9 -1 23 32 62 l44 51 3 -45 c2 -25 6
-45 9 -45z m-999 -21 c30 -46 34 -69 12 -69 -13 0 -80 102 -74 112 11 18 31 5
62 -43z m-74 12 c3 -5 -1 -14 -9 -21 -13 -11 -11 -18 17 -52 25 -32 29 -42 17
-49 -10 -7 -23 1 -46 27 -26 29 -35 34 -46 25 -11 -9 -17 -8 -26 3 -9 11 -3
20 31 45 45 33 54 36 62 22z m716 -21 c459 -73 781 -508 710 -960 -73 -459
-508 -781 -960 -710 -459 73 -781 508 -710 960 73 459 508 781 960 710z m570
-95 c-16 -17 -30 -36 -30 -42 0 -27 24 -23 56 8 26 26 37 30 46 21 9 -9 4 -20
-22 -47 -40 -42 -81 -47 -104 -13 -23 32 -20 43 20 88 29 32 39 38 51 29 12
-10 9 -17 -17 -44z m-1342 -7 c44 -17 51 -22 41 -34 -7 -8 -18 -13 -25 -10
-13 5 -37 -19 -48 -48 -9 -25 -20 -12 -40 48 -21 65 -21 80 2 71 9 -4 41 -16
70 -27z m-93 -81 c39 -34 45 -45 34 -54 -11 -9 -25 -2 -63 32 -29 25 -46 47
-42 54 11 18 21 14 71 -32z m1577 -4 c32 -43 31 -78 -1 -49 -16 14 -21 13 -58
-14 -36 -27 -42 -28 -47 -13 -7 17 -3 22 48 58 16 12 17 17 7 29 -14 16 -6 39
11 34 6 -2 24 -22 40 -45z m-1653 -12 c12 -8 11 -13 -8 -28 -26 -21 -21 -49
12 -59 20 -6 39 9 50 40 3 8 8 7 17 -1 19 -17 -2 -61 -35 -73 -66 -25 -126 59
-78 112 18 20 22 21 42 9z m1708 -68 c5 -14 -96 -85 -109 -77 -18 11 -5 30 40
61 48 32 63 36 69 16z m29 -60 c-3 -10 -8 -31 -12 -47 -7 -31 -9 -31 42 -9 6
2 14 -3 17 -11 5 -12 -9 -24 -53 -46 -33 -17 -62 -30 -64 -30 -3 0 1 21 9 48
8 26 15 48 15 50 0 1 -14 -5 -30 -13 -28 -14 -31 -14 -36 0 -8 19 -10 17 51
48 60 31 68 32 61 10z m-1759 -15 c27 -25 29 -54 7 -86 -20 -29 -76 -30 -104
-2 -62 62 33 149 97 88z m-124 -115 c4 -3 2 -12 -5 -20 -17 -21 -1 -29 20 -10
27 25 60 21 73 -7 14 -30 -3 -66 -31 -66 -23 0 -26 10 -8 28 20 20 2 23 -30 5
-25 -14 -32 -15 -46 -4 -19 16 -21 52 -4 69 14 14 22 15 31 5z m1951 -24 c29
-23 37 -79 11 -79 -8 0 -15 8 -15 18 0 23 -19 42 -42 42 -22 0 -40 -31 -27
-51 7 -12 9 -11 9 2 0 22 27 32 34 13 11 -30 6 -45 -21 -55 -24 -9 -30 -7 -45
11 -25 31 -22 67 7 95 30 30 54 31 89 4z m-1990 -106 l-7 -28 25 23 c46 42 96
20 83 -38 -4 -20 -13 -30 -26 -30 -16 0 -18 5 -12 33 l6 32 -25 -22 c-28 -26
-66 -30 -74 -8 -9 23 5 65 21 65 12 0 14 -7 9 -27z m2048 -87 c12 -29 5 -56
-16 -56 -9 0 -12 7 -9 20 7 26 -14 26 -22 1 -10 -34 -32 -45 -61 -32 -21 9
-25 17 -22 43 2 21 9 34 19 36 13 2 15 -3 12 -23 -7 -34 8 -32 29 5 21 37 54
40 70 6z m-1962 -15 c0 -11 -4 -21 -9 -23 -13 -5 -24 -48 -12 -48 6 0 11 -9
11 -20 0 -11 -2 -20 -6 -20 -11 0 -125 82 -121 87 5 4 114 40 130 42 4 1 7 -8
7 -18z m1970 -111 c0 -27 1 -53 2 -57 1 -5 -6 -9 -15 -11 -12 -2 -17 3 -17 17
0 18 -6 21 -50 21 -43 0 -50 3 -50 20 0 17 7 20 50 20 43 0 50 3 50 20 0 11 7
20 15 20 11 0 15 -12 15 -50z m-1980 -60 c0 -11 -4 -20 -10 -20 -16 0 -12 -42
7 -62 9 -10 13 -21 10 -24 -7 -7 -125 34 -132 46 -5 8 101 79 118 80 4 0 7 -9
7 -20z m1977 -35 c7 -3 10 -11 6 -20 -5 -14 -15 -15 -54 -10 -44 6 -49 5 -49
-13 0 -22 18 -32 61 -32 22 0 29 -5 29 -20 0 -20 -7 -20 -87 -4 -47 9 -55 86
-10 103 20 8 72 5 104 -4z m-1962 -126 c6 -32 3 -45 -12 -61 -18 -21 -18 -21
10 -14 22 5 27 3 27 -12 0 -14 -14 -23 -60 -35 -33 -10 -62 -17 -64 -17 -2 0
-7 16 -10 36 -9 45 8 68 43 61 20 -4 31 1 45 20 l18 25 -66 -7 c-57 -6 -66 -5
-66 9 0 8 10 18 23 20 12 3 31 7 42 9 56 12 63 9 70 -34z m1909 -11 c36 -9 38
-11 32 -41 -9 -45 -34 -69 -70 -65 -42 4 -67 43 -60 90 7 41 1 40 98 16z
m-1851 -187 c-4 -4 -32 -17 -61 -29 l-53 -21 -15 35 c-14 34 -12 54 6 54 5 0
12 -9 15 -20 9 -29 23 -25 17 5 -3 18 0 25 12 25 9 0 16 -7 16 -15 0 -8 7 -15
15 -15 13 0 14 4 4 21 -9 17 -8 23 2 30 10 6 19 -2 32 -28 10 -19 15 -39 10
-42z m1789 58 c29 -11 55 -22 56 -24 2 -2 -1 -20 -8 -39 -15 -47 -44 -50 -36
-3 6 31 6 32 -10 10 -19 -27 -49 -20 -34 7 7 13 7 21 0 25 -6 3 -14 -5 -20
-19 -6 -17 -15 -24 -24 -20 -8 3 -13 11 -11 17 17 49 25 67 29 67 3 0 29 -9
58 -21z m18 -140 c0 -4 -21 -12 -47 -19 l-46 -13 25 -21 c14 -12 23 -27 21
-34 -3 -9 -22 -3 -64 20 -32 18 -59 35 -59 39 0 4 21 12 46 19 42 12 45 15 29
26 -10 7 -22 15 -27 16 -5 2 -6 11 -3 20 6 15 14 13 66 -15 32 -18 59 -35 59
-38z m-1765 18 l20 -36 -21 -28 c-30 -40 -84 -44 -113 -7 -19 24 -28 54 -17
54 2 0 11 3 20 6 12 5 16 0 16 -19 0 -30 33 -45 55 -27 17 14 20 46 4 55 -6 4
-9 0 -7 -11 5 -27 -27 -29 -39 -2 -9 20 -6 26 16 40 33 23 42 20 66 -25z m58
-89 c2 -7 -19 -30 -48 -50 -43 -31 -55 -35 -64 -24 -9 11 -1 21 36 50 51 38
68 43 76 24z m1553 -34 c34 -26 35 -26 49 -8 10 14 17 16 25 8 9 -9 3 -23 -21
-58 -18 -25 -36 -46 -40 -46 -15 0 -21 21 -10 34 9 10 3 20 -26 41 -21 16 -40
30 -42 31 -6 5 10 24 20 24 6 0 26 -12 45 -26z m-1505 -78 c16 14 22 15 32 5
9 -10 2 -22 -38 -56 l-50 -44 -3 49 -3 50 -25 -17 c-17 -11 -28 -13 -35 -6 -7
7 7 25 43 57 l53 46 3 -51 c3 -50 3 -51 23 -33z m1428 30 c10 -11 8 -16 -8
-21 -35 -11 -24 -28 13 -21 33 6 66 -11 66 -35 0 -12 -37 -49 -49 -49 -20 0
-22 22 -5 36 18 14 16 14 -14 9 -56 -11 -83 35 -45 77 19 22 27 22 42 4z
m-1283 -156 c13 0 14 -3 4 -15 -7 -8 -10 -22 -6 -30 6 -17 -9 -21 -19 -5 -4 7
-13 6 -27 -1 -17 -9 -19 -8 -14 9 5 14 1 24 -11 31 -17 10 -16 10 3 11 14 0
24 8 28 23 l7 22 9 -22 c5 -13 17 -23 26 -23z m1104 -15 c0 -9 9 -15 23 -15
19 -1 20 -2 7 -13 -9 -7 -14 -19 -13 -27 3 -11 -5 -15 -27 -15 -20 0 -30 5
-30 16 0 8 -5 20 -12 27 -9 9 -7 12 10 12 13 0 22 6 22 15 0 8 5 15 10 15 6 0
10 -7 10 -15z m-1009 -45 c21 0 26 -15 8 -26 -6 -3 -9 -15 -6 -25 6 -21 -3
-25 -21 -7 -8 8 -15 8 -28 -3 -16 -12 -17 -12 -11 5 5 12 1 26 -9 37 -16 18
-16 19 3 19 12 0 24 8 28 18 8 16 8 16 12 0 3 -10 13 -18 24 -18z m909 -25 c0
-8 7 -11 20 -8 23 6 28 -12 6 -20 -10 -4 -12 -14 -8 -29 5 -21 4 -22 -12 -9
-13 11 -20 11 -28 3 -18 -18 -27 -14 -21 7 3 10 0 22 -6 25 -17 11 -13 29 5
22 11 -4 18 1 21 14 6 21 23 18 23 -5z m-648 -76 l17 -24 0 27 c1 15 6 30 12
34 20 12 28 -11 18 -55 -5 -24 -8 -46 -5 -48 2 -2 17 18 33 46 15 28 30 51 34
51 8 0 50 -122 44 -129 -3 -3 -15 0 -25 7 -24 15 -60 16 -60 2 0 -5 -7 -10
-15 -10 -8 0 -15 5 -15 11 0 5 -4 8 -9 4 -6 -3 -21 10 -34 30 -24 35 -37 37
-37 3 0 -10 -7 -18 -15 -18 -18 0 -19 13 -4 82 13 57 13 57 61 -13z m456 38
c2 -12 -4 -17 -20 -18 -21 -1 -20 -2 8 -14 39 -17 47 -36 28 -64 -17 -24 -59
-28 -68 -6 -4 11 1 15 19 15 34 0 31 16 -5 29 -29 10 -30 9 -30 -19 0 -48 -70
-81 -99 -46 -11 13 -15 12 -32 -5 -24 -24 -40 -24 -73 2 -35 28 -33 73 5 102
31 22 69 16 69 -12 0 -14 -6 -17 -29 -13 -19 3 -30 -1 -34 -12 -9 -23 2 -46
23 -46 30 0 49 11 44 24 -9 23 15 66 43 77 22 8 32 6 55 -11 l28 -21 0 21 c0
12 9 24 23 30 28 11 41 8 45 -13z"/>
<path d="M1004 2136 c-3 -8 -4 -23 -2 -33 5 -25 51 -25 56 0 7 36 -42 65 -54
33z"/>
<path d="M1447 2089 c-9 -6 -17 -21 -17 -35 0 -22 4 -25 28 -22 18 2 28 9 30
24 4 28 -18 45 -41 33z"/>
<path d="M655 2030 c-12 -38 30 -65 54 -36 9 11 10 20 1 35 -14 27 -47 27 -55
1z"/>
<path d="M1735 1939 c-10 -15 3 -25 16 -12 7 7 7 13 1 17 -6 3 -14 1 -17 -5z"/>
<path d="M825 1523 c26 -49 75 -138 109 -200 l61 -112 37 22 c21 11 38 25 38
29 0 5 -20 44 -45 88 -40 70 -44 85 -39 120 6 34 4 40 -11 40 -10 0 -33 17
-50 38 -29 33 -91 62 -136 62 -6 0 10 -39 36 -87z"/>
<path d="M688 1582 c-18 -11 -28 -25 -28 -41 0 -13 -11 -39 -25 -57 -17 -22
-25 -45 -25 -73 0 -22 -4 -51 -9 -65 -7 -18 -6 -27 3 -36 22 -17 30 -82 13
-92 -8 -4 -13 -16 -10 -26 2 -10 -7 -30 -21 -47 -25 -29 -25 -30 -6 -37 11 -4
25 -19 30 -33 15 -39 61 -33 160 20 46 25 85 47 87 49 9 8 -21 56 -39 62 -11
3 -35 -2 -55 -11 -34 -16 -37 -16 -62 3 -35 26 -35 68 0 94 35 26 77 11 85
-32 4 -20 12 -30 25 -30 9 0 31 -16 47 -36 l30 -36 41 22 42 21 -39 72 c-172
318 -177 327 -197 327 -11 -1 -32 -8 -47 -18z"/>
<path d="M1625 1580 c-3 -5 -13 -10 -21 -10 -8 0 -25 -11 -38 -25 -27 -29 -40
-31 -92 -9 -60 25 -167 15 -203 -20 -36 -34 -90 -35 -150 -1 -44 25 -44 25
-58 5 -8 -11 -20 -20 -28 -20 -8 0 -17 -15 -21 -35 -5 -29 1 -48 40 -120 26
-47 50 -85 53 -85 3 0 42 19 85 43 90 47 102 64 92 137 -6 44 -4 49 19 65 33
22 55 17 81 -18 19 -26 19 -30 5 -55 -10 -18 -24 -28 -45 -30 -24 -2 -32 -9
-40 -35 -7 -26 -24 -40 -84 -74 -41 -23 -81 -46 -89 -50 -11 -7 -10 -15 5 -46
l19 -36 205 112 c182 100 205 115 208 140 3 28 35 57 62 57 20 0 60 -41 60
-61 0 -8 -7 -25 -16 -38 -15 -21 -22 -23 -62 -17 -43 6 -54 1 -241 -100 -108
-59 -198 -108 -200 -110 -7 -6 31 -84 41 -84 5 0 23 7 39 16 17 8 40 14 52 12
13 -2 29 6 40 19 35 43 107 19 107 -35 0 -28 -34 -62 -61 -62 -11 0 -33 14
-49 32 -28 30 -31 31 -67 20 -70 -22 -70 -21 -23 -111 41 -79 69 -109 90 -96
6 3 10 13 10 21 0 8 5 14 10 14 6 0 10 -9 10 -20 0 -17 4 -18 25 -10 14 5 35
6 47 1 21 -7 25 -3 47 43 13 28 23 61 23 74 0 12 4 22 8 22 21 0 60 52 60 79
0 21 6 32 20 36 14 4 20 15 20 34 0 16 7 34 15 41 8 7 15 22 15 34 0 34 35 81
76 103 34 17 38 24 39 59 0 31 -5 41 -22 48 -14 7 -23 22 -27 48 -12 71 -69
133 -91 98z"/>
<path d="M991 1566 c-14 -17 -7 -36 14 -36 22 0 29 20 13 36 -13 13 -16 13
-27 0z"/>
<path d="M1314 1465 c-8 -19 12 -36 33 -28 19 7 12 37 -10 41 -9 2 -20 -4 -23
-13z"/>
<path d="M1607 1416 c-7 -18 1 -26 25 -26 13 0 18 6 16 17 -4 22 -34 29 -41 9z"/>
<path d="M714 1256 c-7 -19 3 -36 22 -36 10 0 14 8 12 22 -4 26 -26 36 -34 14z"/>
<path d="M1052 1192 c-13 -9 -6 -42 8 -42 27 0 39 13 29 31 -11 21 -18 23 -37
11z m28 -23 c0 -5 -4 -9 -10 -9 -5 0 -10 7 -10 16 0 8 5 12 10 9 6 -3 10 -10
10 -16z"/>
<path d="M954 1135 c-17 -12 -17 -15 -4 -29 13 -13 19 -14 32 -4 14 11 15 16
4 30 -11 15 -15 16 -32 3z m26 -15 c0 -5 -7 -10 -15 -10 -8 0 -15 5 -15 10 0
6 7 10 15 10 8 0 15 -4 15 -10z"/>
<path d="M775 1069 c-72 -40 -96 -48 -122 -44 -24 4 -41 0 -63 -16 -25 -19
-33 -21 -55 -11 l-25 12 1 -53 c0 -28 4 -71 7 -93 l7 -41 195 104 c107 58 196
106 198 107 4 4 -42 86 -48 85 -3 0 -45 -23 -95 -50z"/>
<path d="M1047 1107 c-17 -12 -15 -47 3 -47 16 0 31 29 23 45 -7 13 -12 13
-26 2z m23 -17 c0 -5 -7 -10 -15 -10 -8 0 -15 5 -15 10 0 6 7 10 15 10 8 0 15
-4 15 -10z"/>
<path d="M1370 1070 c0 -13 7 -20 20 -20 13 0 20 7 20 20 0 13 -7 20 -20 20
-13 0 -20 -7 -20 -20z"/>
<path d="M534 1065 c-4 -9 -2 -21 4 -27 15 -15 44 -1 40 19 -4 23 -36 29 -44
8z"/>
<path d="M1112 1072 c-13 -9 -6 -42 8 -42 27 0 39 13 29 31 -11 21 -18 23 -37
11z m28 -17 c0 -8 -4 -15 -10 -15 -5 0 -10 7 -10 15 0 8 5 15 10 15 6 0 10 -7
10 -15z"/>
<path d="M1024 1015 c-6 -15 2 -35 14 -35 18 1 32 18 26 33 -8 21 -33 22 -40
2z m27 -18 c-13 -13 -26 -3 -16 12 3 6 11 8 17 5 6 -4 6 -10 -1 -17z"/>
<path d="M1147 999 l-38 -20 27 -47 c68 -118 89 -152 96 -152 3 0 16 16 28 35
l21 34 -46 86 c-26 47 -47 85 -48 85 -1 -1 -19 -10 -40 -21z"/>
<path d="M720 905 c-107 -58 -196 -111 -198 -120 -3 -12 10 -15 75 -15 90 0
132 -19 159 -72 9 -18 20 -35 23 -38 3 -3 13 -25 21 -49 8 -24 26 -52 40 -63
24 -17 29 -17 143 -1 91 14 116 21 112 31 -3 9 0 12 9 9 20 -8 48 38 49 82 0
20 3 38 6 41 3 3 16 17 29 31 l22 26 -56 96 c-31 54 -60 97 -66 97 -5 0 -23
-7 -39 -16 -27 -13 -30 -19 -23 -42 5 -15 9 -46 10 -70 1 -24 6 -48 13 -55 26
-26 1 -87 -35 -87 -57 0 -74 64 -27 98 21 15 27 28 27 55 0 19 -6 42 -13 51
-11 13 -16 13 -47 -2 -41 -19 -54 -54 -30 -81 23 -26 20 -58 -8 -76 -19 -13
-29 -14 -45 -5 -47 24 -47 80 -1 95 13 4 20 15 20 30 0 24 41 65 66 65 7 0 15
4 19 10 7 11 -36 80 -50 79 -5 0 -98 -47 -205 -104z"/>
<path d="M871 786 c-9 -10 -8 -16 4 -26 19 -16 41 1 32 24 -8 20 -21 20 -36 2z"/>
<path d="M1001 761 c-15 -10 -8 -41 9 -41 15 0 25 29 14 40 -5 5 -15 5 -23 1z"/>
<path d="M435 1830 c3 -5 8 -10 11 -10 2 0 4 5 4 10 0 6 -5 10 -11 10 -5 0 -7
-4 -4 -10z"/>
<path d="M223 1603 c-21 -8 -15 -51 7 -58 25 -8 40 1 40 25 0 21 -28 40 -47
33z"/>
<path d="M135 1230 c3 -5 10 -10 16 -10 5 0 9 5 9 10 0 6 -7 10 -16 10 -8 0
-12 -4 -9 -10z"/>
<path d="M135 1050 c-3 -5 1 -10 10 -10 9 0 13 5 10 10 -3 6 -8 10 -10 10 -2
0 -7 -4 -10 -10z"/>
<path d="M135 859 c-4 -6 -5 -13 -2 -16 7 -7 27 6 27 18 0 12 -17 12 -25 -2z"/>
<path d="M2062 887 c2 -16 10 -22 28 -22 34 0 32 27 -3 36 -25 7 -28 5 -25
-14z"/>
<path d="M1227 183 c-12 -11 -7 -40 9 -53 21 -18 49 9 39 39 -6 20 -34 28 -48
14z"/>
</g>
</svg>
