<?xml version="1.0" standalone="no"?>
<!DOCTYPE svg PUBLIC "-//W3C//DTD SVG 20010904//EN"
 "http://www.w3.org/TR/2001/REC-SVG-20010904/DTD/svg10.dtd">
<svg version="1.0" xmlns="http://www.w3.org/2000/svg"
 width="554.000000pt" height="554.000000pt" viewBox="0 0 554.000000 554.000000"
 preserveAspectRatio="xMidYMid meet">

<g transform="translate(0.000000,554.000000) scale(0.100000,-0.100000)"
fill="#000000" stroke="none">
<path d="M2525 4155 c-193 -35 -434 -138 -580 -247 -276 -208 -458 -482 -543
-817 -24 -97 -27 -123 -27 -311 0 -226 16 -329 75 -490 173 -469 584 -812
1079 -901 98 -18 141 -20 281 -16 180 6 258 19 417 72 345 115 649 385 807
719 94 198 125 328 133 556 4 125 2 191 -10 265 -91 573 -513 1024 -1081 1157
-119 28 -428 35 -551 13z m179 -86 c37 -29 37 -90 -1 -125 -53 -50 -133 -11
-133 64 0 72 75 107 134 61z m156 3 c0 -15 -6 -18 -30 -14 -23 3 -30 0 -30
-12 0 -11 9 -16 30 -16 23 0 30 -4 30 -20 0 -16 -7 -20 -30 -20 -27 0 -30 -3
-30 -30 0 -23 -4 -30 -20 -30 -18 0 -20 7 -20 80 l0 80 50 0 c42 0 50 -3 50
-18z m227 -17 c13 -9 20 -22 17 -30 -7 -17 -34 -21 -34 -5 0 15 -46 12 -59 -4
-7 -8 -11 -27 -9 -43 3 -24 8 -28 41 -31 40 -3 40 -3 31 -26 -10 -27 -62 -20
-95 13 -33 33 -35 50 -14 91 26 50 79 65 122 35z m-626 -75 c13 -38 20 -72 17
-76 -4 -3 -31 5 -62 19 l-54 25 13 -38 c7 -21 11 -41 8 -44 -18 -18 -34 2 -56
69 -30 87 -26 90 53 50 l49 -25 -14 39 c-7 22 -11 42 -8 45 18 18 34 -1 54
-64z m768 35 c88 -45 25 -186 -68 -154 -37 13 -51 35 -51 81 0 37 13 59 45 76
27 15 41 15 74 -3z m-958 -74 c55 -55 26 -141 -48 -141 -76 0 -115 103 -57
149 37 29 70 26 105 -8z m1142 -69 c26 17 49 29 52 27 3 -4 -44 -148 -52 -158
-2 -3 -11 2 -19 11 -13 12 -14 20 -5 36 18 33 13 35 -24 13 l-35 -20 0 47 -1
47 -20 -27 c-11 -16 -27 -28 -34 -28 -30 0 -24 22 17 66 24 25 48 53 53 62 8
13 11 2 15 -45 l5 -63 48 32z m-1294 -42 c23 -33 41 -64 41 -69 0 -8 -31 -25
-34 -19 -1 2 -18 29 -39 60 -20 32 -37 65 -37 73 0 32 30 13 69 -45z m-89 5
c0 -8 -8 -18 -17 -24 -15 -8 -13 -14 20 -57 42 -53 44 -59 21 -68 -11 -4 -22
1 -31 14 -42 60 -60 75 -76 61 -16 -12 -37 -8 -37 8 0 13 103 90 112 85 4 -3
8 -11 8 -19z m1544 -16 c46 -54 26 -96 -41 -86 -27 5 -42 2 -55 -10 -14 -12
-21 -14 -30 -5 -12 12 2 38 51 99 33 40 43 40 75 2z m-544 -27 c219 -59 423
-187 547 -346 169 -216 245 -431 244 -685 -2 -389 -229 -753 -579 -930 -269
-135 -597 -147 -878 -30 -171 71 -363 227 -464 378 -196 292 -236 670 -105
986 140 338 425 571 790 644 83 17 358 6 445 -17z m624 -38 c25 -9 19 -27 -19
-64 -69 -67 -30 -104 41 -38 34 31 48 38 56 30 19 -19 -68 -102 -106 -102 -73
0 -88 68 -28 135 44 51 37 46 56 39z m-1712 -61 c40 -14 75 -28 77 -29 8 -7
-25 -30 -37 -26 -17 5 -52 -27 -52 -48 0 -10 -7 -23 -15 -30 -17 -14 -15 -17
-41 75 -9 33 -19 66 -21 73 -7 17 7 15 89 -15z m-101 -104 c48 -41 57 -54 48
-65 -16 -19 -19 -18 -67 26 -24 22 -51 44 -60 49 -13 8 -14 12 -3 25 7 9 16
16 18 16 3 0 32 -23 64 -51z m1996 -37 c13 -18 13 -26 4 -35 -10 -9 -15 -8
-25 6 -18 23 -23 22 -73 -19 -36 -30 -47 -34 -54 -23 -13 21 -13 22 37 63 42
35 44 39 30 55 -13 14 -13 20 -3 30 10 10 18 6 40 -21 16 -18 36 -43 44 -56z
m-2101 -17 c-14 -13 -26 -29 -26 -35 0 -15 38 -50 54 -50 19 0 46 27 46 46 0
19 26 18 34 -2 9 -23 -19 -63 -52 -75 -82 -31 -147 64 -91 135 17 21 24 24 40
15 20 -10 20 -11 -5 -34z m2148 -51 c4 -9 5 -18 4 -19 -2 -2 -32 -21 -67 -44
-56 -36 -66 -39 -74 -26 -10 19 -11 18 56 66 59 42 72 46 81 23z m22 -133
c-13 -46 -13 -49 2 -44 9 3 23 10 29 16 15 11 43 3 43 -13 0 -5 -31 -26 -70
-45 -77 -39 -79 -38 -55 41 8 27 15 50 15 50 0 1 -16 -7 -36 -17 -21 -10 -41
-16 -45 -13 -21 13 -4 32 59 66 76 42 82 38 58 -41z m-2199 50 c39 -24 51 -67
29 -110 -39 -75 -157 -40 -156 46 1 31 15 54 45 71 28 16 46 15 82 -7z m-137
-171 c0 -5 -4 -12 -10 -15 -5 -3 -10 -13 -10 -21 0 -11 9 -8 37 11 44 29 56
31 77 9 31 -31 11 -106 -26 -96 -20 5 -24 17 -8 27 6 3 10 15 10 26 0 21 0 21
-34 0 -38 -24 -66 -27 -84 -9 -16 16 -15 39 3 65 14 21 45 22 45 3z m2437 -16
c37 -24 45 -95 11 -102 -13 -2 -16 4 -16 28 1 18 -5 36 -13 41 -20 12 -53 11
-67 -3 -15 -15 -16 -58 -2 -58 6 0 10 6 10 14 0 27 30 27 40 0 15 -38 13 -42
-27 -54 -34 -9 -40 -8 -56 12 -12 15 -17 34 -15 62 2 33 9 44 37 63 36 24 56
23 98 -3z m-2477 -109 c0 -3 -5 -14 -12 -25 -20 -31 0 -36 30 -7 35 33 67 34
87 4 20 -31 3 -87 -26 -87 -20 0 -26 24 -9 35 15 10 12 35 -5 35 -8 0 -15 -4
-15 -8 0 -4 -13 -16 -30 -25 -48 -29 -89 7 -69 61 7 19 49 33 49 17z m2547
-137 c15 -29 8 -58 -13 -58 -8 0 -14 10 -14 25 0 34 -15 32 -30 -5 -17 -40
-35 -53 -65 -46 -45 11 -58 96 -16 96 14 0 17 -6 14 -24 -7 -32 13 -42 28 -14
32 63 74 74 96 26z m-2471 -40 c-17 -10 -22 -68 -6 -68 6 0 10 -9 10 -20 0
-11 -4 -20 -9 -20 -20 0 -153 100 -140 105 8 2 46 15 84 28 69 23 70 23 73 3
2 -10 -3 -23 -12 -28z m2484 -128 c0 -56 -3 -70 -15 -70 -9 0 -15 9 -15 25 0
24 -2 25 -65 25 -58 0 -65 2 -65 20 0 18 7 20 65 20 63 0 65 1 65 25 0 16 6
25 15 25 12 0 15 -14 15 -70z m-2480 -59 c0 -11 -4 -23 -10 -26 -16 -10 -12
-62 5 -69 13 -4 23 -46 11 -46 -9 0 -152 62 -159 69 -6 6 128 91 146 91 4 0 7
-9 7 -19z m2478 -47 c9 -3 10 -9 4 -21 -8 -13 -22 -16 -71 -14 -55 2 -61 1
-61 -18 0 -25 10 -31 68 -40 34 -4 48 -11 50 -24 3 -17 -2 -18 -55 -12 -77 9
-103 26 -103 68 1 34 16 60 40 69 15 6 103 0 128 -8z m-2461 -123 c1 -17 -10
-22 -75 -34 -42 -7 -78 -13 -79 -13 0 1 -3 10 -5 20 -2 17 6 22 57 32 89 17
101 17 102 -5z m2368 -41 c28 -7 55 -13 62 -15 19 -6 -6 -83 -35 -105 -32 -26
-63 -25 -96 1 -21 16 -26 29 -26 64 0 56 8 77 29 71 9 -3 39 -10 66 -16z
m-2355 -29 c0 -10 -9 -26 -20 -36 -26 -23 -26 -39 0 -25 23 12 40 6 40 -15 0
-16 -139 -60 -151 -48 -4 4 -10 24 -14 44 -8 46 15 74 55 65 21 -4 33 1 50 19
25 26 40 25 40 -4z m2302 -138 c35 -15 65 -28 67 -30 6 -4 -21 -93 -28 -93
-22 1 -31 18 -22 43 8 21 8 27 -4 27 -7 0 -17 -9 -20 -21 -10 -31 -30 -16 -27
20 3 37 -14 41 -30 6 -11 -24 -32 -33 -41 -17 -5 8 29 92 37 92 3 0 33 -12 68
-27z m-2249 -25 c9 -23 15 -43 14 -45 -2 -1 -36 -16 -76 -32 l-72 -30 -9 25
c-18 47 -22 72 -11 78 5 4 17 -7 26 -24 19 -37 37 -31 28 10 -4 23 -2 30 10
30 9 0 19 -9 22 -20 3 -11 13 -20 21 -20 17 0 17 1 5 33 -6 14 -7 28 -4 31 15
15 31 3 46 -36z m2267 -150 c0 -3 -28 -15 -62 -25 l-63 -20 38 -18 c39 -20 41
-23 29 -43 -7 -9 -25 -4 -75 25 -37 20 -67 40 -67 44 0 5 25 16 56 26 58 18
59 22 5 52 -8 5 -11 16 -8 25 6 15 16 12 77 -21 38 -21 70 -41 70 -45z m-2216
41 c30 -35 32 -58 11 -98 -16 -32 -33 -41 -79 -41 -42 0 -79 37 -74 76 4 32
28 46 28 16 0 -12 7 -28 16 -36 34 -34 92 -7 80 37 -8 33 -23 35 -28 5 -5 -33
-24 -32 -38 2 -7 17 -11 32 -9 34 19 15 55 36 60 36 4 0 19 -14 33 -31z m86
-138 c0 -14 -122 -92 -136 -87 -25 10 -15 24 49 69 43 31 66 41 75 34 6 -5 12
-13 12 -16z m1935 -31 c51 -35 54 -36 71 -12 9 13 16 14 24 6 9 -9 2 -26 -26
-68 -43 -66 -75 -69 -50 -6 4 10 -10 26 -44 49 -40 27 -48 36 -39 47 15 18 14
19 64 -16z m-1907 -70 c-1 -33 0 -60 3 -60 3 0 16 11 28 24 23 24 52 25 50 2
0 -11 -96 -97 -115 -103 -5 -2 -7 27 -6 63 l4 66 -28 -26 c-31 -28 -50 -33
-56 -14 -4 12 97 108 114 108 6 0 8 -27 6 -60z m1812 10 c13 -9 11 -13 -9 -29
-32 -24 -20 -42 20 -31 71 21 102 -42 45 -90 -13 -10 -19 -10 -31 0 -14 11
-13 14 5 27 33 23 23 33 -25 26 -72 -9 -100 34 -53 84 24 26 27 27 48 13z
m-1630 -180 c0 -13 7 -20 20 -20 11 0 20 -4 20 -10 0 -5 -5 -10 -11 -10 -7 0
-9 -10 -5 -25 7 -27 -3 -32 -22 -13 -9 9 -15 9 -24 0 -19 -19 -30 -14 -23 9 5
14 1 25 -12 34 -17 14 -17 14 5 15 15 0 26 7 29 20 3 11 9 20 14 20 5 0 9 -9
9 -20z m1410 -41 c0 -16 5 -20 20 -16 21 5 28 -7 10 -18 -5 -3 -10 -15 -10
-26 0 -16 -4 -19 -20 -14 -12 4 -28 1 -36 -6 -13 -11 -14 -9 -9 14 5 20 3 28
-9 33 -23 9 -20 23 5 17 15 -4 22 0 26 16 7 27 23 27 23 0z m-1258 -59 c22 0
24 -16 2 -24 -10 -4 -13 -13 -9 -26 7 -22 -4 -27 -22 -9 -8 8 -13 8 -17 0 -11
-18 -28 -13 -24 7 2 11 -3 26 -11 35 -12 15 -11 17 7 17 13 0 23 9 28 23 l7
22 10 -22 c6 -13 18 -23 29 -23z m1158 -35 c24 7 26 -7 5 -25 -9 -7 -13 -21
-10 -31 7 -20 -9 -26 -20 -9 -4 7 -13 6 -26 -1 -18 -9 -20 -8 -17 10 2 11 -6
27 -17 35 -20 15 -20 15 2 16 13 0 28 10 34 22 l12 22 8 -23 c7 -17 14 -21 29
-16z m-854 -60 c15 -25 31 -45 35 -45 4 0 10 16 13 35 6 31 23 45 38 30 9 -9
-26 -146 -37 -145 -5 1 -24 22 -42 46 l-31 45 -7 -41 c-7 -41 -11 -45 -32 -32
-9 6 -8 25 5 80 9 39 19 72 23 72 3 0 19 -20 35 -45z m584 41 c0 -2 3 -12 6
-21 5 -13 2 -16 -16 -13 -37 5 -34 -17 4 -30 59 -22 57 -84 -4 -97 -33 -7 -50
-1 -50 21 0 9 11 14 30 14 41 0 38 15 -7 37 -42 20 -53 51 -28 77 14 14 65 23
65 12z m-103 -48 c46 -43 16 -138 -44 -138 -78 0 -116 100 -55 146 26 20 73
17 99 -8z m-299 -40 c11 -29 24 -65 27 -80 6 -23 4 -26 -14 -21 -12 3 -21 9
-21 14 0 12 -57 11 -65 -1 -8 -13 -35 -13 -35 1 0 15 70 139 79 139 4 0 17
-24 29 -52z m160 24 c3 -21 1 -22 -17 -13 -29 16 -39 14 -56 -13 -13 -20 -14
-29 -5 -46 10 -18 18 -21 46 -17 28 5 34 3 34 -13 0 -36 -66 -41 -97 -7 -28
31 -34 53 -22 85 14 38 38 53 79 50 28 -2 36 -8 38 -26z"/>
<path d="M2614 4023 c-9 -34 7 -58 37 -58 30 0 49 45 29 69 -21 26 -59 20 -66
-11z"/>
<path d="M3166 3974 c-22 -22 -20 -61 4 -74 15 -8 24 -6 40 10 11 11 20 26 20
34 0 16 -26 46 -40 46 -5 0 -16 -7 -24 -16z"/>
<path d="M2192 3921 c-18 -11 -11 -61 11 -75 38 -24 75 35 42 68 -18 18 -33
20 -53 7z"/>
<path d="M3527 3785 c-8 -18 11 -31 25 -17 11 11 3 32 -12 32 -4 0 -10 -7 -13
-15z"/>
<path d="M2340 3367 c0 -7 4 -17 9 -22 4 -6 30 -50 56 -100 27 -49 79 -146
117 -214 37 -68 68 -128 68 -132 0 -20 23 -18 67 7 27 14 49 27 51 29 2 2 -8
25 -23 52 -15 26 -43 76 -62 110 -31 57 -33 65 -24 100 15 52 15 51 -20 58
-20 5 -38 18 -50 39 -20 34 -35 43 -109 70 -55 19 -80 20 -80 3z"/>
<path d="M2255 3362 c-40 -13 -62 -37 -69 -75 -4 -20 -20 -53 -36 -71 -26 -29
-30 -42 -30 -89 0 -31 -5 -68 -10 -83 -8 -21 -7 -29 5 -38 9 -6 21 -32 26 -56
8 -37 7 -46 -5 -56 -9 -6 -16 -23 -16 -37 0 -15 -8 -34 -19 -44 -10 -10 -23
-27 -29 -38 -9 -17 -6 -21 18 -32 18 -7 32 -22 36 -37 6 -24 11 -26 58 -26 44
0 67 8 154 56 56 31 102 62 102 69 0 22 -49 73 -73 77 -12 2 -31 -5 -41 -14
-24 -22 -64 -23 -94 -2 -28 20 -31 83 -4 107 40 37 122 7 122 -43 0 -13 11
-25 34 -34 18 -7 43 -29 56 -47 13 -19 25 -36 27 -38 2 -3 96 42 111 54 2 2
-34 70 -79 151 -45 82 -100 183 -122 224 -71 131 -76 136 -122 122z"/>
<path d="M3380 3339 c-19 -10 -48 -30 -64 -44 -34 -30 -59 -31 -111 -5 -75 38
-217 20 -262 -34 -23 -27 -27 -28 -82 -23 -38 3 -72 14 -99 31 -48 30 -58 32
-66 11 -3 -8 -17 -20 -31 -27 -17 -7 -29 -24 -35 -50 -10 -36 -8 -44 46 -144
31 -58 62 -108 69 -111 8 -2 57 19 110 48 84 45 100 58 115 91 16 36 16 43 2
70 -43 86 80 151 127 67 12 -22 12 -31 2 -57 -12 -30 -55 -56 -81 -50 -7 2
-19 -15 -27 -39 -14 -40 -21 -46 -121 -99 -59 -32 -109 -59 -111 -61 -3 -2 6
-26 20 -53 l24 -49 145 80 c80 44 183 101 230 126 144 77 150 82 150 113 0 56
63 87 108 53 38 -29 38 -88 0 -116 -25 -18 -31 -19 -66 -8 -37 12 -42 11 -93
-16 -30 -17 -90 -49 -134 -73 -102 -54 -319 -173 -323 -175 -2 -2 9 -28 24
-58 l27 -56 38 20 c21 10 55 19 75 19 26 0 41 7 55 24 27 35 53 40 94 20 34
-16 36 -20 33 -57 -6 -78 -89 -102 -126 -37 -19 33 -58 40 -109 18 -64 -27
-65 -34 -27 -101 19 -34 44 -81 56 -104 26 -53 63 -65 90 -31 10 13 18 19 18
13 1 -26 16 -35 47 -26 22 6 39 5 57 -4 24 -13 26 -12 26 5 0 10 4 22 10 25
15 9 50 95 50 124 0 20 8 30 31 40 33 14 49 45 49 91 0 23 5 31 25 36 14 3 26
11 26 18 1 6 2 23 3 38 1 15 10 35 19 46 9 10 17 30 17 43 0 32 50 109 70 109
8 0 28 9 44 19 23 16 29 28 33 65 3 44 2 47 -32 67 -30 18 -35 26 -35 59 0 42
-54 134 -80 136 -8 1 -31 -7 -50 -17z"/>
<path d="M2603 3333 c-19 -7 -16 -50 4 -57 24 -10 51 20 37 41 -12 19 -23 24
-41 16z"/>
<path d="M3009 3204 c-9 -11 -10 -20 -3 -32 15 -23 29 -25 48 -7 12 12 13 21
6 36 -13 23 -33 25 -51 3z"/>
<path d="M3382 3148 c-16 -16 -15 -33 4 -48 22 -19 54 12 38 37 -14 22 -27 26
-42 11z"/>
<path d="M2254 2936 c-10 -26 4 -48 28 -44 17 2 23 10 23 28 0 18 -6 26 -23
28 -13 2 -25 -3 -28 -12z"/>
<path d="M2676 2857 c-15 -11 -15 -16 -4 -39 13 -24 16 -25 41 -12 24 13 25
17 15 39 -13 28 -26 31 -52 12z m34 -21 c0 -3 -4 -8 -10 -11 -5 -3 -10 -1 -10
4 0 6 5 11 10 11 6 0 10 -2 10 -4z"/>
<path d="M2555 2786 c-16 -12 -18 -18 -7 -40 10 -23 14 -25 37 -14 28 13 31
25 11 51 -16 21 -17 21 -41 3z m35 -26 c0 -5 -7 -10 -15 -10 -8 0 -15 5 -15
10 0 6 7 10 15 10 8 0 15 -4 15 -10z"/>
<path d="M2345 2709 c-94 -50 -118 -59 -163 -59 -39 0 -59 -5 -74 -20 -24 -22
-77 -27 -96 -8 -10 10 -12 -12 -10 -110 1 -67 6 -122 11 -122 4 0 40 18 80 39
138 75 262 142 344 183 l81 42 -23 45 c-13 25 -28 51 -32 58 -6 8 -41 -6 -118
-48z"/>
<path d="M2667 2754 c-24 -13 -26 -17 -16 -37 7 -12 13 -23 14 -25 4 -5 55 21
55 27 -1 3 -6 16 -13 28 -11 20 -14 20 -40 7z m18 -34 c3 -5 1 -10 -4 -10 -6
0 -11 5 -11 10 0 6 2 10 4 10 3 0 8 -4 11 -10z"/>
<path d="M3077 2724 c-10 -11 -9 -42 3 -49 20 -12 51 6 48 28 -3 22 -36 35
-51 21z"/>
<path d="M2043 2713 c-19 -7 -16 -50 4 -57 24 -10 51 20 37 41 -12 19 -23 24
-41 16z"/>
<path d="M2763 2709 c-27 -10 -27 -10 -12 -43 10 -21 15 -23 35 -14 27 12 30
27 12 50 -10 12 -19 14 -35 7z"/>
<path d="M2653 2648 c-26 -13 -27 -15 -10 -44 9 -17 17 -20 35 -13 22 8 27 24
16 53 -7 18 -11 19 -41 4z m27 -28 c0 -5 -4 -10 -10 -10 -5 0 -10 5 -10 10 0
6 5 10 10 10 6 0 10 -4 10 -10z"/>
<path d="M2425 2583 c-55 -30 -171 -91 -257 -136 -137 -71 -158 -85 -158 -106
0 -24 1 -24 74 -17 104 9 157 -6 201 -57 19 -22 35 -45 35 -51 0 -5 6 -17 13
-25 8 -9 19 -35 26 -59 7 -24 25 -57 42 -74 33 -35 20 -35 279 0 46 6 54 11
52 26 -3 13 1 16 15 12 25 -8 63 58 63 109 0 29 8 47 36 77 l35 39 -22 37
c-12 20 -44 75 -71 122 -28 47 -52 87 -54 89 -4 4 -104 -40 -104 -46 0 -1 7
-21 16 -43 11 -27 15 -57 11 -86 -3 -32 -1 -47 8 -50 19 -8 27 -48 15 -78 -19
-50 -101 -44 -114 9 -8 31 13 70 43 80 27 8 35 63 16 108 -8 21 -21 37 -29 37
-23 0 -76 -31 -86 -50 -12 -23 -13 -60 -1 -60 5 0 14 -13 21 -30 10 -25 10
-34 -4 -55 -9 -13 -27 -27 -40 -31 -75 -18 -106 90 -34 120 16 7 29 16 27 20
-1 3 1 20 4 36 5 23 18 35 57 55 27 14 50 28 50 31 0 2 -15 27 -33 53 l-32 49
-100 -55z"/>
<path d="M2798 2614 c-27 -13 -48 -27 -48 -30 0 -3 32 -59 71 -125 69 -117 92
-138 104 -99 3 11 11 20 16 20 5 0 9 6 9 14 0 8 5 16 11 18 10 3 -99 228 -111
227 -3 0 -26 -11 -52 -25z"/>
<path d="M2455 2354 c-19 -19 -19 -28 0 -44 21 -17 45 -5 45 24 0 29 -24 40
-45 20z"/>
<path d="M2607 2314 c-4 -4 -7 -16 -7 -26 0 -15 6 -19 28 -16 19 2 27 9 27 23
0 20 -33 33 -48 19z"/>
<path d="M1900 3663 c1 -18 18 -35 24 -24 4 6 4 16 1 21 -7 12 -25 13 -25 3z"/>
<path d="M1627 3363 c-13 -12 -7 -46 11 -59 40 -31 84 -3 64 41 -8 18 -19 25
-40 25 -16 0 -32 -3 -35 -7z"/>
<path d="M1532 2911 c-11 -7 -10 -10 3 -15 23 -9 25 -8 25 9 0 17 -9 19 -28 6z"/>
<path d="M1532 2681 c-11 -7 -10 -10 3 -15 23 -9 25 -8 25 9 0 17 -9 19 -28 6z"/>
<path d="M3937 2486 c-7 -17 19 -56 38 -56 15 0 45 27 45 40 0 7 -53 30 -70
30 -5 0 -10 -6 -13 -14z"/>
<path d="M1530 2432 c0 -15 5 -19 20 -15 24 6 21 26 -3 31 -11 2 -17 -3 -17
-16z"/>
<path d="M2902 1598 c-7 -7 -12 -25 -12 -40 0 -21 6 -29 24 -34 34 -8 46 2 46
36 0 19 -7 33 -19 40 -24 13 -24 13 -39 -2z"/>
<path d="M2637 1555 c-8 -20 -4 -29 11 -24 5 2 6 13 2 23 -6 19 -7 19 -13 1z"/>
</g>
</svg>
